<svg id="visual" viewBox="0 0 900 600" width="900" height="600" xmlns="http://www.w3.org/2000/svg" xmlns:xlink="http://www.w3.org/1999/xlink" version="1.1"><rect x="0" y="0" width="900" height="600" fill="#b7c0db"></rect><path d="M0 408L21.5 409C43 410 86 412 128.8 408.2C171.7 404.3 214.3 394.7 257.2 396.5C300 398.3 343 411.7 385.8 408.5C428.7 405.3 471.3 385.7 514.2 385C557 384.3 600 402.7 642.8 403.7C685.7 404.7 728.3 388.3 771.2 379.8C814 371.3 857 370.7 878.5 370.3L900 370L900 601L878.5 601C857 601 814 601 771.2 601C728.3 601 685.7 601 642.8 601C600 601 557 601 514.2 601C471.3 601 428.7 601 385.8 601C343 601 300 601 257.2 601C214.3 601 171.7 601 128.8 601C86 601 43 601 21.5 601L0 601Z" fill="#254f9b"></path><path d="M0 438L21.5 433.8C43 429.7 86 421.3 128.8 417.2C171.7 413 214.3 413 257.2 414.2C300 415.3 343 417.7 385.8 422.8C428.7 428 471.3 436 514.2 432.8C557 429.7 600 415.3 642.8 419.3C685.7 423.3 728.3 445.7 771.2 458.7C814 471.7 857 475.3 878.5 477.2L900 479L900 601L878.5 601C857 601 814 601 771.2 601C728.3 601 685.7 601 642.8 601C600 601 557 601 514.2 601C471.3 601 428.7 601 385.8 601C343 601 300 601 257.2 601C214.3 601 171.7 601 128.8 601C86 601 43 601 21.5 601L0 601Z" fill="#394897"></path><path d="M0 502L21.5 501.2C43 500.3 86 498.7 128.8 490.5C171.7 482.3 214.3 467.7 257.2 468C300 468.3 343 483.7 385.8 487.5C428.7 491.3 471.3 483.7 514.2 485.5C557 487.3 600 498.7 642.8 498.5C685.7 498.3 728.3 486.7 771.2 478.3C814 470 857 465 878.5 462.5L900 460L900 601L878.5 601C857 601 814 601 771.2 601C728.3 601 685.7 601 642.8 601C600 601 557 601 514.2 601C471.3 601 428.7 601 385.8 601C343 601 300 601 257.2 601C214.3 601 171.7 601 128.8 601C86 601 43 601 21.5 601L0 601Z" fill="#494192"></path><path d="M0 511L21.5 507C43 503 86 495 128.8 500C171.7 505 214.3 523 257.2 531.7C300 540.3 343 539.7 385.8 536.8C428.7 534 471.3 529 514.2 521.8C557 514.7 600 505.3 642.8 499.2C685.7 493 728.3 490 771.2 495.3C814 500.7 857 514.3 878.5 521.2L900 528L900 601L878.5 601C857 601 814 601 771.2 601C728.3 601 685.7 601 642.8 601C600 601 557 601 514.2 601C471.3 601 428.7 601 385.8 601C343 601 300 601 257.2 601C214.3 601 171.7 601 128.8 601C86 601 43 601 21.5 601L0 601Z" fill="#56388b"></path><path d="M0 551L21.5 548.3C43 545.7 86 540.3 128.8 542C171.7 543.7 214.3 552.3 257.2 551.3C300 550.3 343 539.7 385.8 540.7C428.7 541.7 471.3 554.3 514.2 560.5C557 566.7 600 566.3 642.8 562.2C685.7 558 728.3 550 771.2 546.3C814 542.7 857 543.3 878.5 543.7L900 544L900 601L878.5 601C857 601 814 601 771.2 601C728.3 601 685.7 601 642.8 601C600 601 557 601 514.2 601C471.3 601 428.7 601 385.8 601C343 601 300 601 257.2 601C214.3 601 171.7 601 128.8 601C86 601 43 601 21.5 601L0 601Z" fill="#622e83"></path></svg>