<svg id="visual" viewBox="0 0 900 600" width="900" height="600" xmlns="http://www.w3.org/2000/svg" xmlns:xlink="http://www.w3.org/1999/xlink" version="1.1"><g stroke-width="1" stroke-linejoin="bevel"><path d="M364 301L363 448L538 299Z" fill="#001e57" stroke="#001e57"></path><path d="M363 448L541 452L538 299Z" fill="#023172" stroke="#023172"></path><path d="M717 145L540 150L538 299Z" fill="#002460" stroke="#002460"></path><path d="M538 299L540 150L364 301Z" fill="#001346" stroke="#001346"></path><path d="M181 454L360 600L363 448Z" fill="#023e85" stroke="#023e85"></path><path d="M363 448L360 600L541 452Z" fill="#012a69" stroke="#012a69"></path><path d="M360 600L544 600L541 452Z" fill="#023172" stroke="#023172"></path><path d="M541 452L718 446L538 299Z" fill="#001e57" stroke="#001e57"></path><path d="M540 150L356 151L364 301Z" fill="#02377b" stroke="#02377b"></path><path d="M178 298L181 454L363 448Z" fill="#001e57" stroke="#001e57"></path><path d="M720 600L718 446L541 452Z" fill="#01458e" stroke="#01458e"></path><path d="M718 446L721 302L538 299Z" fill="#002460" stroke="#002460"></path><path d="M178 298L363 448L364 301Z" fill="#02377b" stroke="#02377b"></path><path d="M356 151L178 298L364 301Z" fill="#02377b" stroke="#02377b"></path><path d="M544 600L720 600L541 452Z" fill="#01458e" stroke="#01458e"></path><path d="M718 446L900 450L721 302Z" fill="#000036" stroke="#000036"></path><path d="M721 302L717 145L538 299Z" fill="#023e85" stroke="#023e85"></path><path d="M176 0L180 147L356 151Z" fill="#002460" stroke="#002460"></path><path d="M0 452L179 600L181 454Z" fill="#000b3e" stroke="#000b3e"></path><path d="M181 454L179 600L360 600Z" fill="#000b3e" stroke="#000b3e"></path><path d="M356 151L180 147L178 298Z" fill="#001e57" stroke="#001e57"></path><path d="M364 0L356 151L540 150Z" fill="#00184f" stroke="#00184f"></path><path d="M717 145L539 0L540 150Z" fill="#000036" stroke="#000036"></path><path d="M539 0L364 0L540 150Z" fill="#001346" stroke="#001346"></path><path d="M720 600L900 450L718 446Z" fill="#000036" stroke="#000036"></path><path d="M721 302L900 149L717 145Z" fill="#012a69" stroke="#012a69"></path><path d="M900 450L900 296L721 302Z" fill="#012a69" stroke="#012a69"></path><path d="M0 152L0 304L178 298Z" fill="#001346" stroke="#001346"></path><path d="M178 298L0 304L181 454Z" fill="#00184f" stroke="#00184f"></path><path d="M0 304L0 452L181 454Z" fill="#023172" stroke="#023172"></path><path d="M900 149L722 0L717 145Z" fill="#023e85" stroke="#023e85"></path><path d="M717 145L722 0L539 0Z" fill="#000036" stroke="#000036"></path><path d="M180 147L0 152L178 298Z" fill="#01458e" stroke="#01458e"></path><path d="M364 0L176 0L356 151Z" fill="#00184f" stroke="#00184f"></path><path d="M720 600L900 600L900 450Z" fill="#01458e" stroke="#01458e"></path><path d="M900 296L900 149L721 302Z" fill="#012a69" stroke="#012a69"></path><path d="M0 0L0 152L180 147Z" fill="#00184f" stroke="#00184f"></path><path d="M0 452L0 600L179 600Z" fill="#002460" stroke="#002460"></path><path d="M900 149L900 0L722 0Z" fill="#002460" stroke="#002460"></path><path d="M176 0L0 0L180 147Z" fill="#023e85" stroke="#023e85"></path></g></svg>