<svg id="visual" viewBox="0 0 900 600" width="900" height="600" xmlns="http://www.w3.org/2000/svg" xmlns:xlink="http://www.w3.org/1999/xlink" version="1.1"><g stroke-width="1" stroke-linejoin="bevel"><path d="M462 292L469 308.9L477 281.1Z" fill="#626b83" stroke="#626b83"></path><path d="M469 308.9L498 315.7L477 281.1Z" fill="#626b83" stroke="#626b83"></path><path d="M498 315.7L520 269.1L477 281.1Z" fill="#a3acc7" stroke="#a3acc7"></path><path d="M527 303.1L520 269.1L498 315.7Z" fill="#9099b3" stroke="#9099b3"></path><path d="M438 238L426 271.1L477 281.1Z" fill="#8790a9" stroke="#8790a9"></path><path d="M477 281.1L426 271.1L462 292Z" fill="#747d96" stroke="#747d96"></path><path d="M462 292L408 291L469 308.9Z" fill="#747d96" stroke="#747d96"></path><path d="M408 291L454 354.6L469 308.9Z" fill="#b7c0db" stroke="#b7c0db"></path><path d="M469 308.9L454 354.6L498 315.7Z" fill="#59627a" stroke="#59627a"></path><path d="M498 315.7L555 364.9L527 303.1Z" fill="#adb6d1" stroke="#adb6d1"></path><path d="M535 263.1L533 262.3L520 269.1Z" fill="#8790a9" stroke="#8790a9"></path><path d="M499 213.3L458 231.4L477 281.1Z" fill="#b7c0db" stroke="#b7c0db"></path><path d="M499 213.3L477 281.1L520 269.1Z" fill="#59627a" stroke="#59627a"></path><path d="M527 303.1L535 263.1L520 269.1Z" fill="#747d96" stroke="#747d96"></path><path d="M335 275.3L408 291L426 271.1Z" fill="#626b83" stroke="#626b83"></path><path d="M426 271.1L408 291L462 292Z" fill="#626b83" stroke="#626b83"></path><path d="M458 231.4L438 238L477 281.1Z" fill="#9aa3bd" stroke="#9aa3bd"></path><path d="M454 354.6L477 372.6L498 315.7Z" fill="#7e879f" stroke="#7e879f"></path><path d="M419 362L435 370.6L454 354.6Z" fill="#6b748c" stroke="#6b748c"></path><path d="M454 354.6L435 370.6L477 372.6Z" fill="#626b83" stroke="#626b83"></path><path d="M515 215.4L520 269.1L533 262.3Z" fill="#59627a" stroke="#59627a"></path><path d="M515 215.4L499 213.3L520 269.1Z" fill="#59627a" stroke="#59627a"></path><path d="M458 231.4L409 199.6L438 238Z" fill="#a3acc7" stroke="#a3acc7"></path><path d="M408 291L419 362L454 354.6Z" fill="#7e879f" stroke="#7e879f"></path><path d="M534 216.6L515 215.4L533 262.3Z" fill="#9aa3bd" stroke="#9aa3bd"></path><path d="M535 263.1L534 216.6L533 262.3Z" fill="#747d96" stroke="#747d96"></path><path d="M515 215.4L496 184.3L499 213.3Z" fill="#b7c0db" stroke="#b7c0db"></path><path d="M419 362L426 380.7L435 370.6Z" fill="#626b83" stroke="#626b83"></path><path d="M435 370.6L467 402.7L477 372.6Z" fill="#9099b3" stroke="#9099b3"></path><path d="M551 382L555 364.9L477 372.6Z" fill="#59627a" stroke="#59627a"></path><path d="M477 372.6L555 364.9L498 315.7Z" fill="#626b83" stroke="#626b83"></path><path d="M527 303.1L608 296L535 263.1Z" fill="#7e879f" stroke="#7e879f"></path><path d="M572 221.3L556 210L534 216.6Z" fill="#9099b3" stroke="#9099b3"></path><path d="M346 311.7L372 312.1L335 275.3Z" fill="#6b748c" stroke="#6b748c"></path><path d="M408 291L372 312.1L419 362Z" fill="#b7c0db" stroke="#b7c0db"></path><path d="M337 411.6L390 434.9L426 380.7Z" fill="#626b83" stroke="#626b83"></path><path d="M426 380.7L467 402.7L435 370.6Z" fill="#59627a" stroke="#59627a"></path><path d="M534 216.6L496 184.3L515 215.4Z" fill="#8790a9" stroke="#8790a9"></path><path d="M499 213.3L496 184.3L458 231.4Z" fill="#626b83" stroke="#626b83"></path><path d="M496 417.4L551 382L477 372.6Z" fill="#a3acc7" stroke="#a3acc7"></path><path d="M572 221.3L534 216.6L535 263.1Z" fill="#747d96" stroke="#747d96"></path><path d="M534 216.6L556 210L496 184.3Z" fill="#9099b3" stroke="#9099b3"></path><path d="M418 179.3L409 199.6L458 231.4Z" fill="#6b748c" stroke="#6b748c"></path><path d="M438 238L409 199.6L426 271.1Z" fill="#8790a9" stroke="#8790a9"></path><path d="M608 296L572 221.3L535 263.1Z" fill="#8790a9" stroke="#8790a9"></path><path d="M467 402.7L496 417.4L477 372.6Z" fill="#b7c0db" stroke="#b7c0db"></path><path d="M637 258.4L574 219.3L572 221.3Z" fill="#9099b3" stroke="#9099b3"></path><path d="M572 221.3L574 219.3L556 210Z" fill="#747d96" stroke="#747d96"></path><path d="M467 402.7L496 424.9L496 417.4Z" fill="#7e879f" stroke="#7e879f"></path><path d="M496 417.4L522 437.6L551 382Z" fill="#9aa3bd" stroke="#9aa3bd"></path><path d="M465 450.4L496 424.9L467 402.7Z" fill="#adb6d1" stroke="#adb6d1"></path><path d="M496 184.3L418 179.3L458 231.4Z" fill="#8790a9" stroke="#8790a9"></path><path d="M551 382L568 389.6L555 364.9Z" fill="#626b83" stroke="#626b83"></path><path d="M555 364.9L608 296L527 303.1Z" fill="#747d96" stroke="#747d96"></path><path d="M568 417.7L568 389.6L551 382Z" fill="#6b748c" stroke="#6b748c"></path><path d="M335 275.3L372 312.1L408 291Z" fill="#b7c0db" stroke="#b7c0db"></path><path d="M372 312.1L337 411.6L419 362Z" fill="#6b748c" stroke="#6b748c"></path><path d="M335 275.3L426 271.1L409 199.6Z" fill="#6b748c" stroke="#6b748c"></path><path d="M631 315.1L608 296L555 364.9Z" fill="#b7c0db" stroke="#b7c0db"></path><path d="M496 184.3L411 169.7L418 179.3Z" fill="#9aa3bd" stroke="#9aa3bd"></path><path d="M418 179.3L411 169.7L409 199.6Z" fill="#a3acc7" stroke="#a3acc7"></path><path d="M311 261.1L335 275.3L299 213.4Z" fill="#626b83" stroke="#626b83"></path><path d="M574 219.3L585 202.6L556 210Z" fill="#adb6d1" stroke="#adb6d1"></path><path d="M556 210L549 115.4L496 184.3Z" fill="#9099b3" stroke="#9099b3"></path><path d="M622 196.1L585 202.6L574 219.3Z" fill="#59627a" stroke="#59627a"></path><path d="M496 424.9L522 437.6L496 417.4Z" fill="#9099b3" stroke="#9099b3"></path><path d="M522 437.6L568 417.7L551 382Z" fill="#adb6d1" stroke="#adb6d1"></path><path d="M603 387.9L631 315.1L555 364.9Z" fill="#59627a" stroke="#59627a"></path><path d="M390 434.9L467 402.7L426 380.7Z" fill="#adb6d1" stroke="#adb6d1"></path><path d="M390 434.9L465 450.4L467 402.7Z" fill="#adb6d1" stroke="#adb6d1"></path><path d="M496 424.9L465 450.4L522 437.6Z" fill="#626b83" stroke="#626b83"></path><path d="M603 387.9L555 364.9L568 389.6Z" fill="#adb6d1" stroke="#adb6d1"></path><path d="M608 296L637 258.4L572 221.3Z" fill="#9099b3" stroke="#9099b3"></path><path d="M568 417.7L603 387.9L568 389.6Z" fill="#9aa3bd" stroke="#9aa3bd"></path><path d="M337 411.6L426 380.7L419 362Z" fill="#8790a9" stroke="#8790a9"></path><path d="M631 315.1L637 258.4L608 296Z" fill="#8790a9" stroke="#8790a9"></path><path d="M299 213.4L335 275.3L409 199.6Z" fill="#626b83" stroke="#626b83"></path><path d="M335 275.3L297 297.9L346 311.7Z" fill="#adb6d1" stroke="#adb6d1"></path><path d="M314 391L337 411.6L372 312.1Z" fill="#626b83" stroke="#626b83"></path><path d="M622 196.1L595 168.7L585 202.6Z" fill="#9099b3" stroke="#9099b3"></path><path d="M585 202.6L595 168.7L556 210Z" fill="#626b83" stroke="#626b83"></path><path d="M389 124.3L385 135.4L411 169.7Z" fill="#9099b3" stroke="#9099b3"></path><path d="M637 258.4L622 196.1L574 219.3Z" fill="#59627a" stroke="#59627a"></path><path d="M311 261.1L297 297.9L335 275.3Z" fill="#a3acc7" stroke="#a3acc7"></path><path d="M314 391L372 312.1L346 311.7Z" fill="#9aa3bd" stroke="#9aa3bd"></path><path d="M390 434.9L455 476.7L465 450.4Z" fill="#747d96" stroke="#747d96"></path><path d="M465 450.4L473 486.3L522 437.6Z" fill="#8790a9" stroke="#8790a9"></path><path d="M522 437.6L533 497.1L568 417.7Z" fill="#747d96" stroke="#747d96"></path><path d="M461 478.1L455 476.7L465 523.3Z" fill="#b7c0db" stroke="#b7c0db"></path><path d="M455 476.7L461 478.1L465 450.4Z" fill="#9099b3" stroke="#9099b3"></path><path d="M389 124.3L411 169.7L400 102.4Z" fill="#9aa3bd" stroke="#9aa3bd"></path><path d="M411 169.7L321 164.6L409 199.6Z" fill="#747d96" stroke="#747d96"></path><path d="M622 196.1L620 175.7L595 168.7Z" fill="#626b83" stroke="#626b83"></path><path d="M701 147.4L620 175.7L622 196.1Z" fill="#9099b3" stroke="#9099b3"></path><path d="M301 366L314 391L346 311.7Z" fill="#b7c0db" stroke="#b7c0db"></path><path d="M297 297.9L301 366L346 311.7Z" fill="#9aa3bd" stroke="#9aa3bd"></path><path d="M311 261.1L287 296.1L297 297.9Z" fill="#747d96" stroke="#747d96"></path><path d="M297 297.9L300 365.7L301 366Z" fill="#6b748c" stroke="#6b748c"></path><path d="M267 261.9L287 296.1L311 261.1Z" fill="#9099b3" stroke="#9099b3"></path><path d="M271 313L300 365.7L297 297.9Z" fill="#a3acc7" stroke="#a3acc7"></path><path d="M301 366L285 370.9L314 391Z" fill="#747d96" stroke="#747d96"></path><path d="M465 523.3L473 486.3L461 478.1Z" fill="#747d96" stroke="#747d96"></path><path d="M461 478.1L473 486.3L465 450.4Z" fill="#6b748c" stroke="#6b748c"></path><path d="M698 260.4L657 233.3L637 258.4Z" fill="#6b748c" stroke="#6b748c"></path><path d="M637 258.4L657 233.3L622 196.1Z" fill="#a3acc7" stroke="#a3acc7"></path><path d="M400 102.4L411 169.7L496 184.3Z" fill="#a3acc7" stroke="#a3acc7"></path><path d="M321 164.6L299 213.4L409 199.6Z" fill="#9aa3bd" stroke="#9aa3bd"></path><path d="M549 109.6L549 115.4L561 113.6Z" fill="#adb6d1" stroke="#adb6d1"></path><path d="M595 168.7L549 115.4L556 210Z" fill="#9099b3" stroke="#9099b3"></path><path d="M321 164.6L411 169.7L385 135.4Z" fill="#59627a" stroke="#59627a"></path><path d="M561 113.6L549 115.4L595 168.7Z" fill="#9099b3" stroke="#9099b3"></path><path d="M544 95.9L400 102.4L496 184.3Z" fill="#9099b3" stroke="#9099b3"></path><path d="M603 134.9L561 113.6L595 168.7Z" fill="#9aa3bd" stroke="#9aa3bd"></path><path d="M319 117.4L321 164.6L385 135.4Z" fill="#59627a" stroke="#59627a"></path><path d="M225 224.3L282 234.3L224 215.1Z" fill="#59627a" stroke="#59627a"></path><path d="M299 213.4L282 234.3L311 261.1Z" fill="#9099b3" stroke="#9099b3"></path><path d="M418 496.1L455 476.7L390 434.9Z" fill="#6b748c" stroke="#6b748c"></path><path d="M465 523.3L481 500.4L473 486.3Z" fill="#9099b3" stroke="#9099b3"></path><path d="M473 486.3L533 497.1L522 437.6Z" fill="#9099b3" stroke="#9099b3"></path><path d="M637 465.1L654 424.3L603 387.9Z" fill="#adb6d1" stroke="#adb6d1"></path><path d="M634 94.4L603 134.9L620 175.7Z" fill="#9099b3" stroke="#9099b3"></path><path d="M620 175.7L603 134.9L595 168.7Z" fill="#6b748c" stroke="#6b748c"></path><path d="M283 369.7L285 370.9L300 365.7Z" fill="#626b83" stroke="#626b83"></path><path d="M300 365.7L285 370.9L301 366Z" fill="#9099b3" stroke="#9099b3"></path><path d="M314 391L322 452.4L337 411.6Z" fill="#626b83" stroke="#626b83"></path><path d="M271 313L297 297.9L287 296.1Z" fill="#a3acc7" stroke="#a3acc7"></path><path d="M247 266.3L271 313L287 296.1Z" fill="#9aa3bd" stroke="#9aa3bd"></path><path d="M271 313L283 369.7L300 365.7Z" fill="#747d96" stroke="#747d96"></path><path d="M277 395.9L322 452.4L314 391Z" fill="#626b83" stroke="#626b83"></path><path d="M544 95.9L496 184.3L549 115.4Z" fill="#9aa3bd" stroke="#9aa3bd"></path><path d="M389 124.3L319 117.4L385 135.4Z" fill="#59627a" stroke="#59627a"></path><path d="M322 452.4L390 434.9L337 411.6Z" fill="#adb6d1" stroke="#adb6d1"></path><path d="M317 481.6L418 496.1L390 434.9Z" fill="#626b83" stroke="#626b83"></path><path d="M481 500.4L533 497.1L473 486.3Z" fill="#adb6d1" stroke="#adb6d1"></path><path d="M561 113.6L544 95.9L549 109.6Z" fill="#8790a9" stroke="#8790a9"></path><path d="M549 109.6L544 95.9L549 115.4Z" fill="#747d96" stroke="#747d96"></path><path d="M558 81.6L544 95.9L561 113.6Z" fill="#8790a9" stroke="#8790a9"></path><path d="M282 234.3L267 261.9L311 261.1Z" fill="#59627a" stroke="#59627a"></path><path d="M411 64.7L393 93.4L400 102.4Z" fill="#9099b3" stroke="#9099b3"></path><path d="M400 102.4L393 93.4L389 124.3Z" fill="#747d96" stroke="#747d96"></path><path d="M611 474.7L603 387.9L568 417.7Z" fill="#626b83" stroke="#626b83"></path><path d="M603 387.9L702 359L631 315.1Z" fill="#59627a" stroke="#59627a"></path><path d="M631 315.1L698 260.4L637 258.4Z" fill="#9aa3bd" stroke="#9aa3bd"></path><path d="M277 395.9L314 391L285 370.9Z" fill="#747d96" stroke="#747d96"></path><path d="M409 515.3L415 508.4L418 496.1Z" fill="#6b748c" stroke="#6b748c"></path><path d="M418 496.1L465 523.3L455 476.7Z" fill="#9099b3" stroke="#9099b3"></path><path d="M481 500.4L552 555.4L533 497.1Z" fill="#b7c0db" stroke="#b7c0db"></path><path d="M229 397.7L277 395.9L283 369.7Z" fill="#6b748c" stroke="#6b748c"></path><path d="M283 369.7L277 395.9L285 370.9Z" fill="#626b83" stroke="#626b83"></path><path d="M229 397.7L283 369.7L203 334.7Z" fill="#9099b3" stroke="#9099b3"></path><path d="M533 497.1L611 474.7L568 417.7Z" fill="#626b83" stroke="#626b83"></path><path d="M607 503.3L612 474.7L611 474.7Z" fill="#747d96" stroke="#747d96"></path><path d="M611 474.7L637 465.1L603 387.9Z" fill="#7e879f" stroke="#7e879f"></path><path d="M723 288.3L698 260.4L723 317.7Z" fill="#747d96" stroke="#747d96"></path><path d="M701 147.4L634 94.4L620 175.7Z" fill="#747d96" stroke="#747d96"></path><path d="M672 475.3L665 422.6L654 424.3Z" fill="#59627a" stroke="#59627a"></path><path d="M654 424.3L665 422.6L603 387.9Z" fill="#626b83" stroke="#626b83"></path><path d="M415 508.4L465 523.3L418 496.1Z" fill="#8790a9" stroke="#8790a9"></path><path d="M628 497.6L632 475.4L612 474.7Z" fill="#6b748c" stroke="#6b748c"></path><path d="M585 60.7L558 81.6L561 113.6Z" fill="#6b748c" stroke="#6b748c"></path><path d="M544 95.9L411 64.7L400 102.4Z" fill="#747d96" stroke="#747d96"></path><path d="M317 481.6L409 515.3L418 496.1Z" fill="#747d96" stroke="#747d96"></path><path d="M415 508.4L409 515.3L465 523.3Z" fill="#747d96" stroke="#747d96"></path><path d="M558 81.6L548 77.7L544 95.9Z" fill="#747d96" stroke="#747d96"></path><path d="M225 224.3L247 266.3L267 261.9Z" fill="#59627a" stroke="#59627a"></path><path d="M267 261.9L247 266.3L287 296.1Z" fill="#adb6d1" stroke="#adb6d1"></path><path d="M225 224.3L267 261.9L282 234.3Z" fill="#7e879f" stroke="#7e879f"></path><path d="M612 474.7L637 465.1L611 474.7Z" fill="#59627a" stroke="#59627a"></path><path d="M665 422.6L702 359L603 387.9Z" fill="#6b748c" stroke="#6b748c"></path><path d="M607 503.3L611 474.7L533 497.1Z" fill="#a3acc7" stroke="#a3acc7"></path><path d="M612 474.7L632 475.4L637 465.1Z" fill="#8790a9" stroke="#8790a9"></path><path d="M725 439.7L706 406.9L665 422.6Z" fill="#59627a" stroke="#59627a"></path><path d="M362 71.9L319 117.4L389 124.3Z" fill="#59627a" stroke="#59627a"></path><path d="M224 215.1L282 234.3L299 213.4Z" fill="#626b83" stroke="#626b83"></path><path d="M233 424.4L316 472.6L322 452.4Z" fill="#59627a" stroke="#59627a"></path><path d="M322 452.4L317 481.6L390 434.9Z" fill="#6b748c" stroke="#6b748c"></path><path d="M432 39.9L411 64.7L544 95.9Z" fill="#a3acc7" stroke="#a3acc7"></path><path d="M393 93.4L362 71.9L389 124.3Z" fill="#adb6d1" stroke="#adb6d1"></path><path d="M706 406.9L702 359L665 422.6Z" fill="#a3acc7" stroke="#a3acc7"></path><path d="M706 406.9L709 368.9L702 359Z" fill="#a3acc7" stroke="#a3acc7"></path><path d="M723 317.7L698 260.4L631 315.1Z" fill="#9aa3bd" stroke="#9aa3bd"></path><path d="M310 514.4L317 481.6L251 504.3Z" fill="#9aa3bd" stroke="#9aa3bd"></path><path d="M316 472.6L317 481.6L322 452.4Z" fill="#6b748c" stroke="#6b748c"></path><path d="M552 555.4L607 503.3L533 497.1Z" fill="#adb6d1" stroke="#adb6d1"></path><path d="M723 317.7L631 315.1L702 359Z" fill="#8790a9" stroke="#8790a9"></path><path d="M701 147.4L622 196.1L657 233.3Z" fill="#59627a" stroke="#59627a"></path><path d="M739 356.7L723 317.7L702 359Z" fill="#7e879f" stroke="#7e879f"></path><path d="M221 288L226 294.9L247 266.3Z" fill="#a3acc7" stroke="#a3acc7"></path><path d="M247 266.3L226 294.9L271 313Z" fill="#6b748c" stroke="#6b748c"></path><path d="M277 395.9L233 424.4L322 452.4Z" fill="#6b748c" stroke="#6b748c"></path><path d="M365 61.6L362 71.9L393 93.4Z" fill="#adb6d1" stroke="#adb6d1"></path><path d="M607 503.3L628 497.6L612 474.7Z" fill="#9099b3" stroke="#9099b3"></path><path d="M632 475.4L672 475.3L637 465.1Z" fill="#7e879f" stroke="#7e879f"></path><path d="M672 475.3L654 424.3L637 465.1Z" fill="#adb6d1" stroke="#adb6d1"></path><path d="M739 356.7L741 298L723 317.7Z" fill="#9099b3" stroke="#9099b3"></path><path d="M225 224.3L221 288L247 266.3Z" fill="#747d96" stroke="#747d96"></path><path d="M203 334.7L283 369.7L271 313Z" fill="#9099b3" stroke="#9099b3"></path><path d="M701 147.4L657 233.3L698 260.4Z" fill="#747d96" stroke="#747d96"></path><path d="M603 134.9L585 60.7L561 113.6Z" fill="#adb6d1" stroke="#adb6d1"></path><path d="M558 81.6L585 60.7L548 77.7Z" fill="#6b748c" stroke="#6b748c"></path><path d="M633 504.4L639 497.1L628 497.6Z" fill="#b7c0db" stroke="#b7c0db"></path><path d="M628 497.6L639 497.1L632 475.4Z" fill="#7e879f" stroke="#7e879f"></path><path d="M634 94.4L585 60.7L603 134.9Z" fill="#626b83" stroke="#626b83"></path><path d="M548 77.7L432 39.9L544 95.9Z" fill="#9aa3bd" stroke="#9aa3bd"></path><path d="M397 37.9L365 61.6L411 64.7Z" fill="#6b748c" stroke="#6b748c"></path><path d="M411 64.7L365 61.6L393 93.4Z" fill="#59627a" stroke="#59627a"></path><path d="M321 15.7L252 82.7L319 117.4Z" fill="#b7c0db" stroke="#b7c0db"></path><path d="M341 531.3L404 545.1L409 515.3Z" fill="#59627a" stroke="#59627a"></path><path d="M409 515.3L404 545.1L465 523.3Z" fill="#adb6d1" stroke="#adb6d1"></path><path d="M626 510.1L628 497.6L607 503.3Z" fill="#747d96" stroke="#747d96"></path><path d="M626 510.1L633 504.4L628 497.6Z" fill="#6b748c" stroke="#6b748c"></path><path d="M465 0L432 39.9L495 0Z" fill="#9099b3" stroke="#9099b3"></path><path d="M626 510.1L607 503.3L585 591.1Z" fill="#6b748c" stroke="#6b748c"></path><path d="M741 298L737 283.9L723 288.3Z" fill="#6b748c" stroke="#6b748c"></path><path d="M723 288.3L737 283.9L698 260.4Z" fill="#747d96" stroke="#747d96"></path><path d="M741 298L723 288.3L723 317.7Z" fill="#9aa3bd" stroke="#9aa3bd"></path><path d="M224 215.1L299 213.4L244 143.4Z" fill="#8790a9" stroke="#8790a9"></path><path d="M299 213.4L321 164.6L244 143.4Z" fill="#626b83" stroke="#626b83"></path><path d="M552 555.4L481 500.4L465 523.3Z" fill="#747d96" stroke="#747d96"></path><path d="M739 356.7L702 359L709 368.9Z" fill="#b7c0db" stroke="#b7c0db"></path><path d="M244 143.4L321 164.6L319 117.4Z" fill="#8790a9" stroke="#8790a9"></path><path d="M128 285.9L203 334.7L221 288Z" fill="#adb6d1" stroke="#adb6d1"></path><path d="M725 439.7L672 475.3L697 504.3Z" fill="#626b83" stroke="#626b83"></path><path d="M697 504.3L672 475.3L639 497.1Z" fill="#626b83" stroke="#626b83"></path><path d="M639 497.1L672 475.3L632 475.4Z" fill="#6b748c" stroke="#6b748c"></path><path d="M203 334.7L271 313L226 294.9Z" fill="#747d96" stroke="#747d96"></path><path d="M779 250L698 260.4L737 283.9Z" fill="#7e879f" stroke="#7e879f"></path><path d="M756 162.3L701 147.4L766 182.1Z" fill="#6b748c" stroke="#6b748c"></path><path d="M706 406.9L739 356.7L709 368.9Z" fill="#59627a" stroke="#59627a"></path><path d="M745 434.6L739 356.7L706 406.9Z" fill="#9aa3bd" stroke="#9aa3bd"></path><path d="M432 39.9L397 37.9L411 64.7Z" fill="#7e879f" stroke="#7e879f"></path><path d="M523 600L552 555.4L465 523.3Z" fill="#7e879f" stroke="#7e879f"></path><path d="M310 514.4L341 531.3L317 481.6Z" fill="#8790a9" stroke="#8790a9"></path><path d="M317 481.6L341 531.3L409 515.3Z" fill="#59627a" stroke="#59627a"></path><path d="M251 504.3L317 481.6L316 472.6Z" fill="#a3acc7" stroke="#a3acc7"></path><path d="M162 385L226 408.9L229 397.7Z" fill="#6b748c" stroke="#6b748c"></path><path d="M229 397.7L233 424.4L277 395.9Z" fill="#9aa3bd" stroke="#9aa3bd"></path><path d="M226 408.9L233 424.4L229 397.7Z" fill="#6b748c" stroke="#6b748c"></path><path d="M153 216.3L221 288L225 224.3Z" fill="#9aa3bd" stroke="#9aa3bd"></path><path d="M221 288L203 334.7L226 294.9Z" fill="#7e879f" stroke="#7e879f"></path><path d="M220 125.6L244 143.4L252 82.7Z" fill="#b7c0db" stroke="#b7c0db"></path><path d="M319 117.4L362 71.9L321 15.7Z" fill="#a3acc7" stroke="#a3acc7"></path><path d="M701 147.4L674 93.6L634 94.4Z" fill="#9aa3bd" stroke="#9aa3bd"></path><path d="M634 94.4L679 0L585 60.7Z" fill="#b7c0db" stroke="#b7c0db"></path><path d="M745 434.6L725 439.7L742 510.4Z" fill="#9099b3" stroke="#9099b3"></path><path d="M672 475.3L725 439.7L665 422.6Z" fill="#6b748c" stroke="#6b748c"></path><path d="M383 0L369 26.9L397 37.9Z" fill="#59627a" stroke="#59627a"></path><path d="M397 37.9L369 26.9L365 61.6Z" fill="#747d96" stroke="#747d96"></path><path d="M425 0L397 37.9L432 39.9Z" fill="#9aa3bd" stroke="#9aa3bd"></path><path d="M341 531.3L349 560.4L404 545.1Z" fill="#a3acc7" stroke="#a3acc7"></path><path d="M404 545.1L436 600L465 523.3Z" fill="#7e879f" stroke="#7e879f"></path><path d="M310 514.4L349 560.4L341 531.3Z" fill="#b7c0db" stroke="#b7c0db"></path><path d="M323 600L349 560.4L285 600Z" fill="#626b83" stroke="#626b83"></path><path d="M495 0L548 77.7L514 0.9Z" fill="#9aa3bd" stroke="#9aa3bd"></path><path d="M495 0L432 39.9L548 77.7Z" fill="#59627a" stroke="#59627a"></path><path d="M514 0.9L548 77.7L535 0Z" fill="#747d96" stroke="#747d96"></path><path d="M465 0L444 0.9L432 39.9Z" fill="#9099b3" stroke="#9099b3"></path><path d="M535 0L548 77.7L585 60.7Z" fill="#747d96" stroke="#747d96"></path><path d="M775 265.9L741 298L803 310.9Z" fill="#9099b3" stroke="#9099b3"></path><path d="M775 265.9L773 265L741 298Z" fill="#8790a9" stroke="#8790a9"></path><path d="M741 298L773 265L737 283.9Z" fill="#626b83" stroke="#626b83"></path><path d="M701 147.4L723 102.7L674 93.6Z" fill="#b7c0db" stroke="#b7c0db"></path><path d="M803 310.9L741 298L739 356.7Z" fill="#6b748c" stroke="#6b748c"></path><path d="M773 265L779 250L737 283.9Z" fill="#8790a9" stroke="#8790a9"></path><path d="M444 0.9L425 0L432 39.9Z" fill="#9aa3bd" stroke="#9aa3bd"></path><path d="M497 -5.3L425 0L444 0.9Z" fill="#a3acc7" stroke="#a3acc7"></path><path d="M570 0L535 0L585 60.7Z" fill="#8790a9" stroke="#8790a9"></path><path d="M514 0.9L497 -5.3L495 0Z" fill="#b7c0db" stroke="#b7c0db"></path><path d="M495 0L497 -5.3L465 0Z" fill="#9aa3bd" stroke="#9aa3bd"></path><path d="M465 0L497 -5.3L444 0.9Z" fill="#8790a9" stroke="#8790a9"></path><path d="M535 0L497 -5.3L514 0.9Z" fill="#59627a" stroke="#59627a"></path><path d="M697 504.3L639 497.1L685 528.1Z" fill="#8790a9" stroke="#8790a9"></path><path d="M725 439.7L745 434.6L706 406.9Z" fill="#8790a9" stroke="#8790a9"></path><path d="M220 125.6L204 163.1L244 143.4Z" fill="#59627a" stroke="#59627a"></path><path d="M244 143.4L204 163.1L224 215.1Z" fill="#6b748c" stroke="#6b748c"></path><path d="M224 215.1L153 216.3L225 224.3Z" fill="#747d96" stroke="#747d96"></path><path d="M685 528.1L633 504.4L626 510.1Z" fill="#747d96" stroke="#747d96"></path><path d="M685 528.1L639 497.1L633 504.4Z" fill="#7e879f" stroke="#7e879f"></path><path d="M789 216.6L779 250L816 242Z" fill="#adb6d1" stroke="#adb6d1"></path><path d="M775 265.9L779 250L773 265Z" fill="#7e879f" stroke="#7e879f"></path><path d="M419 602.1L436 600L404 545.1Z" fill="#747d96" stroke="#747d96"></path><path d="M552 555.4L585 591.1L607 503.3Z" fill="#6b748c" stroke="#6b748c"></path><path d="M218 499.1L251 504.3L233 424.4Z" fill="#a3acc7" stroke="#a3acc7"></path><path d="M233 424.4L251 504.3L316 472.6Z" fill="#9aa3bd" stroke="#9aa3bd"></path><path d="M194 488.6L233 424.4L176 467.4Z" fill="#a3acc7" stroke="#a3acc7"></path><path d="M477 604.3L523 600L465 523.3Z" fill="#a3acc7" stroke="#a3acc7"></path><path d="M252 82.7L244 143.4L319 117.4Z" fill="#7e879f" stroke="#7e879f"></path><path d="M436 600L477 604.3L465 523.3Z" fill="#747d96" stroke="#747d96"></path><path d="M321 15.7L365 61.6L369 26.9Z" fill="#59627a" stroke="#59627a"></path><path d="M321 15.7L362 71.9L365 61.6Z" fill="#59627a" stroke="#59627a"></path><path d="M766 182.1L701 147.4L698 260.4Z" fill="#8790a9" stroke="#8790a9"></path><path d="M275 -15.1L383 0L425 0Z" fill="#a3acc7" stroke="#a3acc7"></path><path d="M425 0L383 0L397 37.9Z" fill="#59627a" stroke="#59627a"></path><path d="M635 -28.1L570 0L585 60.7Z" fill="#59627a" stroke="#59627a"></path><path d="M535 0L635 -28.1L497 -5.3Z" fill="#9099b3" stroke="#9099b3"></path><path d="M679 0L634 94.4L674 93.6Z" fill="#9099b3" stroke="#9099b3"></path><path d="M779 250L766 182.1L698 260.4Z" fill="#9099b3" stroke="#9099b3"></path><path d="M477 604.3L543 600L523 600Z" fill="#7e879f" stroke="#7e879f"></path><path d="M523 600L543 600L552 555.4Z" fill="#626b83" stroke="#626b83"></path><path d="M370 600L419 602.1L404 545.1Z" fill="#9099b3" stroke="#9099b3"></path><path d="M436 600L419 602.1L477 604.3Z" fill="#b7c0db" stroke="#b7c0db"></path><path d="M370 600L404 545.1L349 560.4Z" fill="#59627a" stroke="#59627a"></path><path d="M659 600L685 528.1L626 510.1Z" fill="#9099b3" stroke="#9099b3"></path><path d="M805 448.6L794 413.9L745 434.6Z" fill="#626b83" stroke="#626b83"></path><path d="M762 145.6L723 102.7L701 147.4Z" fill="#7e879f" stroke="#7e879f"></path><path d="M477 604.3L556 600L543 600Z" fill="#9099b3" stroke="#9099b3"></path><path d="M543 600L556 600L552 555.4Z" fill="#626b83" stroke="#626b83"></path><path d="M556 600L585 591.1L552 555.4Z" fill="#6b748c" stroke="#6b748c"></path><path d="M275 -15.1L369 0L383 0Z" fill="#747d96" stroke="#747d96"></path><path d="M383 0L369 0L369 26.9Z" fill="#59627a" stroke="#59627a"></path><path d="M342 0L321 15.7L369 26.9Z" fill="#7e879f" stroke="#7e879f"></path><path d="M779 250L785 208.3L766 182.1Z" fill="#7e879f" stroke="#7e879f"></path><path d="M766 182.1L768 161.7L756 162.3Z" fill="#6b748c" stroke="#6b748c"></path><path d="M756 162.3L762 145.6L701 147.4Z" fill="#adb6d1" stroke="#adb6d1"></path><path d="M785 208.3L768 161.7L766 182.1Z" fill="#a3acc7" stroke="#a3acc7"></path><path d="M174 89.7L198 135.4L220 125.6Z" fill="#9099b3" stroke="#9099b3"></path><path d="M220 125.6L198 135.4L204 163.1Z" fill="#59627a" stroke="#59627a"></path><path d="M128 285.9L162 385L203 334.7Z" fill="#6b748c" stroke="#6b748c"></path><path d="M369 600L370 600L349 560.4Z" fill="#6b748c" stroke="#6b748c"></path><path d="M364 606.3L369 600L323 600Z" fill="#626b83" stroke="#626b83"></path><path d="M370 600L364 606.3L419 602.1Z" fill="#59627a" stroke="#59627a"></path><path d="M779 250L789 216.6L785 208.3Z" fill="#7e879f" stroke="#7e879f"></path><path d="M841 126.4L783 110.7L768 161.7Z" fill="#59627a" stroke="#59627a"></path><path d="M816 242L779 250L775 265.9Z" fill="#7e879f" stroke="#7e879f"></path><path d="M783 110.7L762 145.6L768 161.7Z" fill="#7e879f" stroke="#7e879f"></path><path d="M768 161.7L762 145.6L756 162.3Z" fill="#9aa3bd" stroke="#9aa3bd"></path><path d="M275 -15.1L342 0L369 0Z" fill="#9099b3" stroke="#9099b3"></path><path d="M369 0L342 0L369 26.9Z" fill="#626b83" stroke="#626b83"></path><path d="M153 216.3L224 215.1L204 163.1Z" fill="#59627a" stroke="#59627a"></path><path d="M203 334.7L162 385L229 397.7Z" fill="#adb6d1" stroke="#adb6d1"></path><path d="M814 322.1L803 310.9L739 356.7Z" fill="#b7c0db" stroke="#b7c0db"></path><path d="M194 488.6L218 499.1L233 424.4Z" fill="#a3acc7" stroke="#a3acc7"></path><path d="M323 600L369 600L349 560.4Z" fill="#9aa3bd" stroke="#9aa3bd"></path><path d="M349 560.4L310 514.4L285 600Z" fill="#7e879f" stroke="#7e879f"></path><path d="M369 600L364 606.3L370 600Z" fill="#b7c0db" stroke="#b7c0db"></path><path d="M419 602.1L364 606.3L477 604.3Z" fill="#b7c0db" stroke="#b7c0db"></path><path d="M477 604.3L605 600L556 600Z" fill="#a3acc7" stroke="#a3acc7"></path><path d="M556 600L605 600L585 591.1Z" fill="#9099b3" stroke="#9099b3"></path><path d="M585 591.1L605 600L626 510.1Z" fill="#7e879f" stroke="#7e879f"></path><path d="M134 193.3L153 216.3L204 163.1Z" fill="#b7c0db" stroke="#b7c0db"></path><path d="M202 510.3L219 511.1L218 499.1Z" fill="#b7c0db" stroke="#b7c0db"></path><path d="M218 499.1L219 511.1L251 504.3Z" fill="#b7c0db" stroke="#b7c0db"></path><path d="M826 343.1L814 322.1L739 356.7Z" fill="#6b748c" stroke="#6b748c"></path><path d="M803 310.9L816 242L775 265.9Z" fill="#9aa3bd" stroke="#9aa3bd"></path><path d="M742 510.4L725 439.7L697 504.3Z" fill="#9099b3" stroke="#9099b3"></path><path d="M745 434.6L794 413.9L739 356.7Z" fill="#626b83" stroke="#626b83"></path><path d="M477 604.3L626 600L605 600Z" fill="#59627a" stroke="#59627a"></path><path d="M605 600L626 600L626 510.1Z" fill="#adb6d1" stroke="#adb6d1"></path><path d="M685 528.1L742 510.4L697 504.3Z" fill="#adb6d1" stroke="#adb6d1"></path><path d="M285 600L310 514.4L267 588.3Z" fill="#747d96" stroke="#747d96"></path><path d="M728 571.1L742 510.4L685 528.1Z" fill="#747d96" stroke="#747d96"></path><path d="M165 438.7L233 424.4L226 408.9Z" fill="#9099b3" stroke="#9099b3"></path><path d="M162 385L165 438.7L226 408.9Z" fill="#6b748c" stroke="#6b748c"></path><path d="M153 216.3L135 254.9L221 288Z" fill="#adb6d1" stroke="#adb6d1"></path><path d="M162 385L157 448.6L165 438.7Z" fill="#a3acc7" stroke="#a3acc7"></path><path d="M814 322.1L816 242L803 310.9Z" fill="#6b748c" stroke="#6b748c"></path><path d="M789 216.6L837 194.1L785 208.3Z" fill="#59627a" stroke="#59627a"></path><path d="M321 15.7L272 0L252 82.7Z" fill="#9aa3bd" stroke="#9aa3bd"></path><path d="M252 82.7L174 89.7L220 125.6Z" fill="#adb6d1" stroke="#adb6d1"></path><path d="M342 0L298 0L321 15.7Z" fill="#626b83" stroke="#626b83"></path><path d="M275 -15.1L298 0L342 0Z" fill="#b7c0db" stroke="#b7c0db"></path><path d="M165 438.7L176 467.4L233 424.4Z" fill="#b7c0db" stroke="#b7c0db"></path><path d="M167 547.1L202 510.3L194 488.6Z" fill="#a3acc7" stroke="#a3acc7"></path><path d="M194 488.6L202 510.3L218 499.1Z" fill="#adb6d1" stroke="#adb6d1"></path><path d="M267 588.3L310 514.4L251 504.3Z" fill="#626b83" stroke="#626b83"></path><path d="M135 254.9L128 285.9L221 288Z" fill="#8790a9" stroke="#8790a9"></path><path d="M794 413.9L826 343.1L739 356.7Z" fill="#b7c0db" stroke="#b7c0db"></path><path d="M814 322.1L900 289.3L816 242Z" fill="#9099b3" stroke="#9099b3"></path><path d="M165 438.7L157 448.6L176 467.4Z" fill="#7e879f" stroke="#7e879f"></path><path d="M176 467.4L131 477.7L194 488.6Z" fill="#626b83" stroke="#626b83"></path><path d="M131 477.7L157 448.6L98 468.4Z" fill="#626b83" stroke="#626b83"></path><path d="M626 600L659 600L626 510.1Z" fill="#9aa3bd" stroke="#9aa3bd"></path><path d="M477 604.3L659 600L626 600Z" fill="#a3acc7" stroke="#a3acc7"></path><path d="M116 166.7L134 193.3L198 135.4Z" fill="#7e879f" stroke="#7e879f"></path><path d="M198 135.4L134 193.3L204 163.1Z" fill="#a3acc7" stroke="#a3acc7"></path><path d="M153 216.3L120 215L135 254.9Z" fill="#747d96" stroke="#747d96"></path><path d="M135 254.9L92 290.1L128 285.9Z" fill="#747d96" stroke="#747d96"></path><path d="M837 194.1L768 161.7L785 208.3Z" fill="#adb6d1" stroke="#adb6d1"></path><path d="M762 145.6L783 110.7L723 102.7Z" fill="#6b748c" stroke="#6b748c"></path><path d="M713 0L679 0L674 93.6Z" fill="#9aa3bd" stroke="#9aa3bd"></path><path d="M713 0L674 93.6L723 102.7Z" fill="#9aa3bd" stroke="#9aa3bd"></path><path d="M570 0L635 -28.1L535 0Z" fill="#7e879f" stroke="#7e879f"></path><path d="M267 588.3L251 504.3L219 511.1Z" fill="#8790a9" stroke="#8790a9"></path><path d="M323 600L285 600L364 606.3Z" fill="#8790a9" stroke="#8790a9"></path><path d="M213 600L267 588.3L219 511.1Z" fill="#adb6d1" stroke="#adb6d1"></path><path d="M275 -15.1L272 0L298 0Z" fill="#adb6d1" stroke="#adb6d1"></path><path d="M298 0L272 0L321 15.7Z" fill="#b7c0db" stroke="#b7c0db"></path><path d="M267 588.3L283 600L285 600Z" fill="#6b748c" stroke="#6b748c"></path><path d="M285 600L283 600L364 606.3Z" fill="#9099b3" stroke="#9099b3"></path><path d="M679 0L635 -28.1L585 60.7Z" fill="#a3acc7" stroke="#a3acc7"></path><path d="M497 -5.3L275 -15.1L425 0Z" fill="#8790a9" stroke="#8790a9"></path><path d="M742 510.4L805 448.6L745 434.6Z" fill="#7e879f" stroke="#7e879f"></path><path d="M794 413.9L826 438.6L826 343.1Z" fill="#9aa3bd" stroke="#9aa3bd"></path><path d="M814 537.4L805 448.6L742 510.4Z" fill="#626b83" stroke="#626b83"></path><path d="M783 110.7L759 67.7L723 102.7Z" fill="#8790a9" stroke="#8790a9"></path><path d="M134 193.3L120 215L153 216.3Z" fill="#747d96" stroke="#747d96"></path><path d="M211 43.6L174 89.7L252 82.7Z" fill="#8790a9" stroke="#8790a9"></path><path d="M134 193.3L108 177.3L120 215Z" fill="#59627a" stroke="#59627a"></path><path d="M272 0L211 43.6L252 82.7Z" fill="#9099b3" stroke="#9099b3"></path><path d="M635 -28.1L275 -15.1L497 -5.3Z" fill="#6b748c" stroke="#6b748c"></path><path d="M272 0L201 31.9L211 43.6Z" fill="#747d96" stroke="#747d96"></path><path d="M174 65.6L165 92.6L174 89.7Z" fill="#9099b3" stroke="#9099b3"></path><path d="M174 89.7L165 92.6L198 135.4Z" fill="#adb6d1" stroke="#adb6d1"></path><path d="M659 600L728 571.1L685 528.1Z" fill="#b7c0db" stroke="#b7c0db"></path><path d="M877 171.4L837 194.1L900 213.6Z" fill="#59627a" stroke="#59627a"></path><path d="M816 242L837 194.1L789 216.6Z" fill="#59627a" stroke="#59627a"></path><path d="M783 110.7L816 42.6L759 67.7Z" fill="#626b83" stroke="#626b83"></path><path d="M125 80.6L153 102.4L133 67.6Z" fill="#626b83" stroke="#626b83"></path><path d="M165 92.6L153 102.4L198 135.4Z" fill="#9aa3bd" stroke="#9aa3bd"></path><path d="M830 524.4L826 438.6L805 448.6Z" fill="#a3acc7" stroke="#a3acc7"></path><path d="M805 448.6L826 438.6L794 413.9Z" fill="#8790a9" stroke="#8790a9"></path><path d="M900 213.6L837 194.1L816 242Z" fill="#adb6d1" stroke="#adb6d1"></path><path d="M759 67.7L713 0L723 102.7Z" fill="#6b748c" stroke="#6b748c"></path><path d="M679 0L713 0L635 -28.1Z" fill="#adb6d1" stroke="#adb6d1"></path><path d="M211 43.6L174 65.6L174 89.7Z" fill="#7e879f" stroke="#7e879f"></path><path d="M201 31.9L174 65.6L211 43.6Z" fill="#a3acc7" stroke="#a3acc7"></path><path d="M275 -15.1L201 31.9L272 0Z" fill="#adb6d1" stroke="#adb6d1"></path><path d="M108 177.3L116 166.7L58 164.4Z" fill="#6b748c" stroke="#6b748c"></path><path d="M153 102.4L116 166.7L198 135.4Z" fill="#8790a9" stroke="#8790a9"></path><path d="M0 231.3L92 290.1L120 215Z" fill="#9aa3bd" stroke="#9aa3bd"></path><path d="M120 215L92 290.1L135 254.9Z" fill="#626b83" stroke="#626b83"></path><path d="M128 285.9L70 320L162 385Z" fill="#9099b3" stroke="#9099b3"></path><path d="M125 80.6L116 166.7L153 102.4Z" fill="#8790a9" stroke="#8790a9"></path><path d="M116 166.7L108 177.3L134 193.3Z" fill="#9099b3" stroke="#9099b3"></path><path d="M157 448.6L131 477.7L176 467.4Z" fill="#626b83" stroke="#626b83"></path><path d="M202 510.3L167 547.1L219 511.1Z" fill="#9aa3bd" stroke="#9aa3bd"></path><path d="M98 468.4L157 448.6L162 385Z" fill="#6b748c" stroke="#6b748c"></path><path d="M131 477.7L167 547.1L194 488.6Z" fill="#a3acc7" stroke="#a3acc7"></path><path d="M267 588.3L213 600L283 600Z" fill="#b7c0db" stroke="#b7c0db"></path><path d="M877 171.4L841 126.4L837 194.1Z" fill="#59627a" stroke="#59627a"></path><path d="M837 194.1L841 126.4L768 161.7Z" fill="#59627a" stroke="#59627a"></path><path d="M759 67.7L751 0L713 0Z" fill="#59627a" stroke="#59627a"></path><path d="M167 547.1L213 600L219 511.1Z" fill="#8790a9" stroke="#8790a9"></path><path d="M283 600L179 602.3L364 606.3Z" fill="#8790a9" stroke="#8790a9"></path><path d="M770 0L751 0L759 67.7Z" fill="#9aa3bd" stroke="#9aa3bd"></path><path d="M713 0L751 0L635 -28.1Z" fill="#8790a9" stroke="#8790a9"></path><path d="M0 282L70 320L92 290.1Z" fill="#8790a9" stroke="#8790a9"></path><path d="M92 290.1L70 320L128 285.9Z" fill="#a3acc7" stroke="#a3acc7"></path><path d="M133 67.6L153 102.4L165 92.6Z" fill="#a3acc7" stroke="#a3acc7"></path><path d="M108 177.3L58 164.4L120 215Z" fill="#8790a9" stroke="#8790a9"></path><path d="M133 67.6L165 92.6L174 65.6Z" fill="#59627a" stroke="#59627a"></path><path d="M153 38.7L133 67.6L174 65.6Z" fill="#59627a" stroke="#59627a"></path><path d="M153 38.7L174 65.6L201 31.9Z" fill="#adb6d1" stroke="#adb6d1"></path><path d="M142 2.9L153 38.7L201 31.9Z" fill="#6b748c" stroke="#6b748c"></path><path d="M796 572.3L814 537.4L742 510.4Z" fill="#6b748c" stroke="#6b748c"></path><path d="M796 572.3L742 510.4L728 571.1Z" fill="#adb6d1" stroke="#adb6d1"></path><path d="M56 461.3L98 468.4L45 433.4Z" fill="#8790a9" stroke="#8790a9"></path><path d="M131 477.7L118 520.6L167 547.1Z" fill="#9099b3" stroke="#9099b3"></path><path d="M167 547.1L179 602.3L213 600Z" fill="#b7c0db" stroke="#b7c0db"></path><path d="M801 12.9L770 0L759 67.7Z" fill="#747d96" stroke="#747d96"></path><path d="M751 0L796 -6.1L635 -28.1Z" fill="#a3acc7" stroke="#a3acc7"></path><path d="M900 289.3L814 322.1L826 343.1Z" fill="#59627a" stroke="#59627a"></path><path d="M841 126.4L816 42.6L783 110.7Z" fill="#b7c0db" stroke="#b7c0db"></path><path d="M900 289.3L826 343.1L900 373Z" fill="#adb6d1" stroke="#adb6d1"></path><path d="M814 537.4L830 524.4L805 448.6Z" fill="#626b83" stroke="#626b83"></path><path d="M774 600.3L796 572.3L728 571.1Z" fill="#7e879f" stroke="#7e879f"></path><path d="M814 537.4L829 560.3L830 524.4Z" fill="#59627a" stroke="#59627a"></path><path d="M98 468.4L118 520.6L131 477.7Z" fill="#9099b3" stroke="#9099b3"></path><path d="M900 373L826 343.1L826 438.6Z" fill="#a3acc7" stroke="#a3acc7"></path><path d="M889 85.6L816 42.6L841 126.4Z" fill="#7e879f" stroke="#7e879f"></path><path d="M900 289.3L900 259.1L816 242Z" fill="#a3acc7" stroke="#a3acc7"></path><path d="M477 604.3L774 600.3L659 600Z" fill="#7e879f" stroke="#7e879f"></path><path d="M659 600L774 600.3L728 571.1Z" fill="#9aa3bd" stroke="#9aa3bd"></path><path d="M818 600L774 600.3L883 600Z" fill="#8790a9" stroke="#8790a9"></path><path d="M900 259.1L900 251.9L816 242Z" fill="#8790a9" stroke="#8790a9"></path><path d="M141 572.1L179 602.3L167 547.1Z" fill="#747d96" stroke="#747d96"></path><path d="M213 600L179 602.3L283 600Z" fill="#9aa3bd" stroke="#9aa3bd"></path><path d="M900 413.4L900 373L826 438.6Z" fill="#59627a" stroke="#59627a"></path><path d="M816 42.6L801 12.9L759 67.7Z" fill="#59627a" stroke="#59627a"></path><path d="M900 251.9L900 213.6L816 242Z" fill="#747d96" stroke="#747d96"></path><path d="M901 124.3L885 101.7L841 126.4Z" fill="#8790a9" stroke="#8790a9"></path><path d="M118 520.6L141 572.1L167 547.1Z" fill="#626b83" stroke="#626b83"></path><path d="M93 63.9L125 80.6L133 67.6Z" fill="#b7c0db" stroke="#b7c0db"></path><path d="M33 112.4L58 164.4L125 80.6Z" fill="#a3acc7" stroke="#a3acc7"></path><path d="M125 80.6L58 164.4L116 166.7Z" fill="#6b748c" stroke="#6b748c"></path><path d="M900 464.7L900 413.4L826 438.6Z" fill="#6b748c" stroke="#6b748c"></path><path d="M847 2.9L796 -6.1L801 12.9Z" fill="#8790a9" stroke="#8790a9"></path><path d="M801 12.9L796 -6.1L770 0Z" fill="#b7c0db" stroke="#b7c0db"></path><path d="M770 0L796 -6.1L751 0Z" fill="#adb6d1" stroke="#adb6d1"></path><path d="M847 2.9L801 12.9L816 42.6Z" fill="#b7c0db" stroke="#b7c0db"></path><path d="M796 572.3L829 560.3L814 537.4Z" fill="#9aa3bd" stroke="#9aa3bd"></path><path d="M830 524.4L855 529.1L826 438.6Z" fill="#6b748c" stroke="#6b748c"></path><path d="M838 581.1L829 560.3L796 572.3Z" fill="#b7c0db" stroke="#b7c0db"></path><path d="M900 213.6L900 164.7L877 171.4Z" fill="#7e879f" stroke="#7e879f"></path><path d="M140 0L142 2.9L141 -19.1Z" fill="#9099b3" stroke="#9099b3"></path><path d="M123 0L93 63.9L133 67.6Z" fill="#8790a9" stroke="#8790a9"></path><path d="M829 560.3L855 529.1L830 524.4Z" fill="#747d96" stroke="#747d96"></path><path d="M141 -19.1L142 2.9L201 31.9Z" fill="#7e879f" stroke="#7e879f"></path><path d="M123 0L133 67.6L153 38.7Z" fill="#adb6d1" stroke="#adb6d1"></path><path d="M123 0L153 38.7L142 2.9Z" fill="#626b83" stroke="#626b83"></path><path d="M98 468.4L63 528.3L118 520.6Z" fill="#747d96" stroke="#747d96"></path><path d="M101 611.1L126 600L88 600Z" fill="#adb6d1" stroke="#adb6d1"></path><path d="M45 433.4L98 468.4L162 385Z" fill="#b7c0db" stroke="#b7c0db"></path><path d="M45 433.4L162 385L70 320Z" fill="#59627a" stroke="#59627a"></path><path d="M901 124.3L841 126.4L877 171.4Z" fill="#59627a" stroke="#59627a"></path><path d="M19 388.6L45 433.4L70 320Z" fill="#a3acc7" stroke="#a3acc7"></path><path d="M900 487.6L900 464.7L826 438.6Z" fill="#7e879f" stroke="#7e879f"></path><path d="M883 600L774 600.3L477 604.3Z" fill="#6b748c" stroke="#6b748c"></path><path d="M774 600.3L818 600L796 572.3Z" fill="#b7c0db" stroke="#b7c0db"></path><path d="M829 560.3L838 581.1L855 529.1Z" fill="#9099b3" stroke="#9099b3"></path><path d="M855 529.1L900 487.6L826 438.6Z" fill="#b7c0db" stroke="#b7c0db"></path><path d="M940 350.7L901 124.3L900 164.7Z" fill="#adb6d1" stroke="#adb6d1"></path><path d="M900 164.7L901 124.3L877 171.4Z" fill="#6b748c" stroke="#6b748c"></path><path d="M940 350.7L900 164.7L900 213.6Z" fill="#7e879f" stroke="#7e879f"></path><path d="M940 350.7L900 213.6L900 251.9Z" fill="#626b83" stroke="#626b83"></path><path d="M940 350.7L900 251.9L900 259.1Z" fill="#747d96" stroke="#747d96"></path><path d="M940 350.7L900 259.1L900 289.3Z" fill="#59627a" stroke="#59627a"></path><path d="M940 350.7L900 289.3L900 373Z" fill="#747d96" stroke="#747d96"></path><path d="M929 375.6L900 373L900 413.4Z" fill="#b7c0db" stroke="#b7c0db"></path><path d="M900 464.7L929 375.6L900 413.4Z" fill="#7e879f" stroke="#7e879f"></path><path d="M275 -15.1L141 -19.1L201 31.9Z" fill="#59627a" stroke="#59627a"></path><path d="M140 0L123 0L142 2.9Z" fill="#8790a9" stroke="#8790a9"></path><path d="M635 -28.1L141 -19.1L275 -15.1Z" fill="#9aa3bd" stroke="#9aa3bd"></path><path d="M818 600L838 581.1L796 572.3Z" fill="#59627a" stroke="#59627a"></path><path d="M141 -19.1L123 0L140 0Z" fill="#9aa3bd" stroke="#9aa3bd"></path><path d="M889 85.6L900 111.4L910 -6.1Z" fill="#747d96" stroke="#747d96"></path><path d="M901 124.3L900 111.4L885 101.7Z" fill="#8790a9" stroke="#8790a9"></path><path d="M885 101.7L889 85.6L841 126.4Z" fill="#626b83" stroke="#626b83"></path><path d="M900 111.4L889 85.6L885 101.7Z" fill="#9099b3" stroke="#9099b3"></path><path d="M88 600L141 572.1L118 520.6Z" fill="#626b83" stroke="#626b83"></path><path d="M141 572.1L126 600L179 602.3Z" fill="#747d96" stroke="#747d96"></path><path d="M900 529.1L900 487.6L855 529.1Z" fill="#9099b3" stroke="#9099b3"></path><path d="M900 464.7L913 517.4L929 375.6Z" fill="#626b83" stroke="#626b83"></path><path d="M0 282L19 388.6L70 320Z" fill="#9aa3bd" stroke="#9aa3bd"></path><path d="M21 473.6L63 528.3L56 461.3Z" fill="#a3acc7" stroke="#a3acc7"></path><path d="M56 461.3L63 528.3L98 468.4Z" fill="#9aa3bd" stroke="#9aa3bd"></path><path d="M913 517.4L940 350.7L929 375.6Z" fill="#a3acc7" stroke="#a3acc7"></path><path d="M929 375.6L940 350.7L900 373Z" fill="#9aa3bd" stroke="#9aa3bd"></path><path d="M18 160.7L23 180.1L58 164.4Z" fill="#9aa3bd" stroke="#9aa3bd"></path><path d="M58 164.4L23 180.1L120 215Z" fill="#59627a" stroke="#59627a"></path><path d="M18 160.7L58 164.4L32 113.7Z" fill="#9aa3bd" stroke="#9aa3bd"></path><path d="M889 85.6L847 2.9L816 42.6Z" fill="#b7c0db" stroke="#b7c0db"></path><path d="M21 473.6L56 461.3L45 433.4Z" fill="#9099b3" stroke="#9099b3"></path><path d="M0 266.9L0 282L92 290.1Z" fill="#9099b3" stroke="#9099b3"></path><path d="M0 231.3L0 266.9L92 290.1Z" fill="#a3acc7" stroke="#a3acc7"></path><path d="M33 112.4L125 80.6L93 63.9Z" fill="#8790a9" stroke="#8790a9"></path><path d="M23 180.1L0 231.3L120 215Z" fill="#adb6d1" stroke="#adb6d1"></path><path d="M43 68.9L33 112.4L93 63.9Z" fill="#626b83" stroke="#626b83"></path><path d="M33 112.4L32 113.7L58 164.4Z" fill="#6b748c" stroke="#6b748c"></path><path d="M0 190.6L0 231.3L23 180.1Z" fill="#9099b3" stroke="#9099b3"></path><path d="M900 583.3L900 529.1L855 529.1Z" fill="#59627a" stroke="#59627a"></path><path d="M900 487.6L913 517.4L900 464.7Z" fill="#747d96" stroke="#747d96"></path><path d="M900 583.3L855 529.1L838 581.1Z" fill="#747d96" stroke="#747d96"></path><path d="M0 282L-1 385.7L19 388.6Z" fill="#59627a" stroke="#59627a"></path><path d="M19 388.6L0 428.4L45 433.4Z" fill="#b7c0db" stroke="#b7c0db"></path><path d="M-46 434.4L-1 385.7L0 282Z" fill="#747d96" stroke="#747d96"></path><path d="M-35 190.1L0 282L0 266.9Z" fill="#9099b3" stroke="#9099b3"></path><path d="M0 185.1L0 190.6L23 180.1Z" fill="#626b83" stroke="#626b83"></path><path d="M0 231.3L-35 190.1L0 266.9Z" fill="#a3acc7" stroke="#a3acc7"></path><path d="M0 185.1L23 180.1L18 160.7Z" fill="#adb6d1" stroke="#adb6d1"></path><path d="M-1 385.7L0 401.6L19 388.6Z" fill="#8790a9" stroke="#8790a9"></path><path d="M0 446.3L21 473.6L45 433.4Z" fill="#6b748c" stroke="#6b748c"></path><path d="M-35 190.1L0 185.1L18 160.7Z" fill="#a3acc7" stroke="#a3acc7"></path><path d="M0 190.6L-35 190.1L0 231.3Z" fill="#59627a" stroke="#59627a"></path><path d="M33 112.4L0 91.9L32 113.7Z" fill="#adb6d1" stroke="#adb6d1"></path><path d="M32 113.7L0 91.9L18 160.7Z" fill="#59627a" stroke="#59627a"></path><path d="M77 0L43 68.9L93 63.9Z" fill="#626b83" stroke="#626b83"></path><path d="M77 0L93 63.9L123 0Z" fill="#6b748c" stroke="#6b748c"></path><path d="M900 529.1L913 517.4L900 487.6Z" fill="#b7c0db" stroke="#b7c0db"></path><path d="M88 600L126 600L141 572.1Z" fill="#626b83" stroke="#626b83"></path><path d="M126 600L101 611.1L179 602.3Z" fill="#a3acc7" stroke="#a3acc7"></path><path d="M179 602.3L101 611.1L364 606.3Z" fill="#9099b3" stroke="#9099b3"></path><path d="M900 600L883 600L477 604.3Z" fill="#b7c0db" stroke="#b7c0db"></path><path d="M88 600L118 520.6L63 528.3Z" fill="#7e879f" stroke="#7e879f"></path><path d="M49 599.1L88 600L63 528.3Z" fill="#626b83" stroke="#626b83"></path><path d="M-46 434.4L0 428.4L0 401.6Z" fill="#8790a9" stroke="#8790a9"></path><path d="M0 401.6L0 428.4L19 388.6Z" fill="#9aa3bd" stroke="#9aa3bd"></path><path d="M900 0L875 0L889 85.6Z" fill="#9099b3" stroke="#9099b3"></path><path d="M889 85.6L875 0L847 2.9Z" fill="#9aa3bd" stroke="#9aa3bd"></path><path d="M847 2.9L900 -45.1L796 -6.1Z" fill="#9099b3" stroke="#9099b3"></path><path d="M796 -6.1L900 -45.1L635 -28.1Z" fill="#626b83" stroke="#626b83"></path><path d="M141 -19.1L77 0L123 0Z" fill="#9099b3" stroke="#9099b3"></path><path d="M0 428.4L0 446.3L45 433.4Z" fill="#747d96" stroke="#747d96"></path><path d="M21 473.6L0 496.1L63 528.3Z" fill="#9aa3bd" stroke="#9aa3bd"></path><path d="M-46 434.4L0 446.3L0 428.4Z" fill="#a3acc7" stroke="#a3acc7"></path><path d="M-46 434.4L0 453.7L0 446.3Z" fill="#b7c0db" stroke="#b7c0db"></path><path d="M0 446.3L0 453.7L21 473.6Z" fill="#adb6d1" stroke="#adb6d1"></path><path d="M818 600L883 600L838 581.1Z" fill="#626b83" stroke="#626b83"></path><path d="M900 529.1L900 583.3L913 517.4Z" fill="#6b748c" stroke="#6b748c"></path><path d="M900 600L477 604.3L907 600Z" fill="#6b748c" stroke="#6b748c"></path><path d="M883 600L900 583.3L838 581.1Z" fill="#adb6d1" stroke="#adb6d1"></path><path d="M-46 434.4L0 496.1L0 453.7Z" fill="#747d96" stroke="#747d96"></path><path d="M0 453.7L0 496.1L21 473.6Z" fill="#8790a9" stroke="#8790a9"></path><path d="M910 -6.1L900 111.4L901 124.3Z" fill="#9099b3" stroke="#9099b3"></path><path d="M910 -6.1L900 0L889 85.6Z" fill="#adb6d1" stroke="#adb6d1"></path><path d="M875 0L900 -45.1L847 2.9Z" fill="#8790a9" stroke="#8790a9"></path><path d="M0 89.4L33 112.4L43 68.9Z" fill="#a3acc7" stroke="#a3acc7"></path><path d="M0 89.4L0 91.9L33 112.4Z" fill="#9099b3" stroke="#9099b3"></path><path d="M0 185.1L-35 190.1L0 190.6Z" fill="#59627a" stroke="#59627a"></path><path d="M0 77.7L0 89.4L43 68.9Z" fill="#adb6d1" stroke="#adb6d1"></path><path d="M0 91.9L-35 190.1L18 160.7Z" fill="#b7c0db" stroke="#b7c0db"></path><path d="M907 600L477 604.3L364 606.3Z" fill="#adb6d1" stroke="#adb6d1"></path><path d="M883 600L900 600L900 583.3Z" fill="#9099b3" stroke="#9099b3"></path><path d="M900 583.3L907 600L913 517.4Z" fill="#6b748c" stroke="#6b748c"></path><path d="M913 517.4L907 600L940 350.7Z" fill="#b7c0db" stroke="#b7c0db"></path><path d="M0 89.4L-35 190.1L0 91.9Z" fill="#9099b3" stroke="#9099b3"></path><path d="M-1 385.7L-46 434.4L0 401.6Z" fill="#9099b3" stroke="#9099b3"></path><path d="M0 0L0 77.7L43 68.9Z" fill="#626b83" stroke="#626b83"></path><path d="M0 89.4L0 77.7L-35 190.1Z" fill="#7e879f" stroke="#7e879f"></path><path d="M22 600L49 599.1L63 528.3Z" fill="#747d96" stroke="#747d96"></path><path d="M88 600L49 599.1L101 611.1Z" fill="#9099b3" stroke="#9099b3"></path><path d="M101 611.1L907 600L364 606.3Z" fill="#7e879f" stroke="#7e879f"></path><path d="M900 600L907 600L900 583.3Z" fill="#b7c0db" stroke="#b7c0db"></path><path d="M940 350.7L910 -6.1L901 124.3Z" fill="#a3acc7" stroke="#a3acc7"></path><path d="M900 0L900 -45.1L875 0Z" fill="#9aa3bd" stroke="#9aa3bd"></path><path d="M141 -19.1L30 0L77 0Z" fill="#747d96" stroke="#747d96"></path><path d="M77 0L30 0L43 68.9Z" fill="#6b748c" stroke="#6b748c"></path><path d="M-35 190.1L-46 434.4L0 282Z" fill="#b7c0db" stroke="#b7c0db"></path><path d="M0 496.1L22 600L63 528.3Z" fill="#a3acc7" stroke="#a3acc7"></path><path d="M910 -6.1L900 -45.1L900 0Z" fill="#59627a" stroke="#59627a"></path><path d="M635 -28.1L900 -45.1L141 -19.1Z" fill="#747d96" stroke="#747d96"></path><path d="M0 600L22 600L0 496.1Z" fill="#a3acc7" stroke="#a3acc7"></path><path d="M49 599.1L22 600L101 611.1Z" fill="#8790a9" stroke="#8790a9"></path><path d="M141 -19.1L0 0L30 0Z" fill="#7e879f" stroke="#7e879f"></path><path d="M30 0L0 0L43 68.9Z" fill="#a3acc7" stroke="#a3acc7"></path><path d="M0 77.7L0 0L-35 190.1Z" fill="#626b83" stroke="#626b83"></path><path d="M-46 434.4L0 600L0 496.1Z" fill="#9aa3bd" stroke="#9aa3bd"></path><path d="M22 600L0 600L101 611.1Z" fill="#6b748c" stroke="#6b748c"></path></g></svg>