<svg id="visual" viewBox="0 0 900 600" width="900" height="600" xmlns="http://www.w3.org/2000/svg" xmlns:xlink="http://www.w3.org/1999/xlink" version="1.1"><path d="M0 67L6.8 65C13.7 63 27.3 59 41 57C54.7 55 68.3 55 82 58C95.7 61 109.3 67 123 70C136.7 73 150.3 73 164 71C177.7 69 191.3 65 204.8 61C218.3 57 231.7 53 245.2 54C258.7 55 272.3 61 286 64C299.7 67 313.3 67 327 65C340.7 63 354.3 59 368 59C381.7 59 395.3 63 409 64C422.7 65 436.3 63 450 64C463.7 65 477.3 69 491 71C504.7 73 518.3 73 532 73C545.7 73 559.3 73 573 73C586.7 73 600.3 73 614 73C627.7 73 641.3 73 654.8 71C668.3 69 681.7 65 695.2 64C708.7 63 722.3 65 736 67C749.7 69 763.3 71 777 71C790.7 71 804.3 69 818 68C831.7 67 845.3 67 859 65C872.7 63 886.3 59 893.2 57L900 55L900 0L893.2 0C886.3 0 872.7 0 859 0C845.3 0 831.7 0 818 0C804.3 0 790.7 0 777 0C763.3 0 749.7 0 736 0C722.3 0 708.7 0 695.2 0C681.7 0 668.3 0 654.8 0C641.3 0 627.7 0 614 0C600.3 0 586.7 0 573 0C559.3 0 545.7 0 532 0C518.3 0 504.7 0 491 0C477.3 0 463.7 0 450 0C436.3 0 422.7 0 409 0C395.3 0 381.7 0 368 0C354.3 0 340.7 0 327 0C313.3 0 299.7 0 286 0C272.3 0 258.7 0 245.2 0C231.7 0 218.3 0 204.8 0C191.3 0 177.7 0 164 0C150.3 0 136.7 0 123 0C109.3 0 95.7 0 82 0C68.3 0 54.7 0 41 0C27.3 0 13.7 0 6.8 0L0 0Z" fill="#6198ff"></path><path d="M0 241L6.8 240C13.7 239 27.3 237 41 229C54.7 221 68.3 207 82 203C95.7 199 109.3 205 123 211C136.7 217 150.3 223 164 221C177.7 219 191.3 209 204.8 208C218.3 207 231.7 215 245.2 216C258.7 217 272.3 211 286 216C299.7 221 313.3 237 327 238C340.7 239 354.3 225 368 223C381.7 221 395.3 231 409 230C422.7 229 436.3 217 450 214C463.7 211 477.3 217 491 219C504.7 221 518.3 219 532 220C545.7 221 559.3 225 573 231C586.7 237 600.3 245 614 246C627.7 247 641.3 241 654.8 231C668.3 221 681.7 207 695.2 204C708.7 201 722.3 209 736 212C749.7 215 763.3 213 777 214C790.7 215 804.3 219 818 220C831.7 221 845.3 219 859 217C872.7 215 886.3 213 893.2 212L900 211L900 53L893.2 55C886.3 57 872.7 61 859 63C845.3 65 831.7 65 818 66C804.3 67 790.7 69 777 69C763.3 69 749.7 67 736 65C722.3 63 708.7 61 695.2 62C681.7 63 668.3 67 654.8 69C641.3 71 627.7 71 614 71C600.3 71 586.7 71 573 71C559.3 71 545.7 71 532 71C518.3 71 504.7 71 491 69C477.3 67 463.7 63 450 62C436.3 61 422.7 63 409 62C395.3 61 381.7 57 368 57C354.3 57 340.7 61 327 63C313.3 65 299.7 65 286 62C272.3 59 258.7 53 245.2 52C231.7 51 218.3 55 204.8 59C191.3 63 177.7 67 164 69C150.3 71 136.7 71 123 68C109.3 65 95.7 59 82 56C68.3 53 54.7 53 41 55C27.3 57 13.7 61 6.8 63L0 65Z" fill="#4385ff"></path><path d="M0 397L6.8 393C13.7 389 27.3 381 41 376C54.7 371 68.3 369 82 370C95.7 371 109.3 375 123 377C136.7 379 150.3 379 164 377C177.7 375 191.3 371 204.8 366C218.3 361 231.7 355 245.2 359C258.7 363 272.3 377 286 384C299.7 391 313.3 391 327 386C340.7 381 354.3 371 368 370C381.7 369 395.3 377 409 377C422.7 377 436.3 369 450 365C463.7 361 477.3 361 491 361C504.7 361 518.3 361 532 364C545.7 367 559.3 373 573 380C586.7 387 600.3 395 614 395C627.7 395 641.3 387 654.8 379C668.3 371 681.7 363 695.2 361C708.7 359 722.3 363 736 370C749.7 377 763.3 387 777 390C790.7 393 804.3 389 818 386C831.7 383 845.3 381 859 376C872.7 371 886.3 363 893.2 359L900 355L900 209L893.2 210C886.3 211 872.7 213 859 215C845.3 217 831.7 219 818 218C804.3 217 790.7 213 777 212C763.3 211 749.7 213 736 210C722.3 207 708.7 199 695.2 202C681.7 205 668.3 219 654.8 229C641.3 239 627.7 245 614 244C600.3 243 586.7 235 573 229C559.3 223 545.7 219 532 218C518.3 217 504.7 219 491 217C477.3 215 463.7 209 450 212C436.3 215 422.7 227 409 228C395.3 229 381.7 219 368 221C354.3 223 340.7 237 327 236C313.3 235 299.7 219 286 214C272.3 209 258.7 215 245.2 214C231.7 213 218.3 205 204.8 206C191.3 207 177.7 217 164 219C150.3 221 136.7 215 123 209C109.3 203 95.7 197 82 201C68.3 205 54.7 219 41 227C27.3 235 13.7 237 6.8 238L0 239Z" fill="#2071ff"></path><path d="M0 475L6.8 475C13.7 475 27.3 475 41 476C54.7 477 68.3 479 82 476C95.7 473 109.3 465 123 462C136.7 459 150.3 461 164 462C177.7 463 191.3 463 204.8 463C218.3 463 231.7 463 245.2 467C258.7 471 272.3 479 286 482C299.7 485 313.3 483 327 477C340.7 471 354.3 461 368 458C381.7 455 395.3 459 409 464C422.7 469 436.3 475 450 474C463.7 473 477.3 465 491 463C504.7 461 518.3 465 532 465C545.7 465 559.3 461 573 463C586.7 465 600.3 473 614 475C627.7 477 641.3 473 654.8 468C668.3 463 681.7 457 695.2 456C708.7 455 722.3 459 736 463C749.7 467 763.3 471 777 472C790.7 473 804.3 471 818 470C831.7 469 845.3 469 859 470C872.7 471 886.3 473 893.2 474L900 475L900 353L893.2 357C886.3 361 872.7 369 859 374C845.3 379 831.7 381 818 384C804.3 387 790.7 391 777 388C763.3 385 749.7 375 736 368C722.3 361 708.7 357 695.2 359C681.7 361 668.3 369 654.8 377C641.3 385 627.7 393 614 393C600.3 393 586.7 385 573 378C559.3 371 545.7 365 532 362C518.3 359 504.7 359 491 359C477.3 359 463.7 359 450 363C436.3 367 422.7 375 409 375C395.3 375 381.7 367 368 368C354.3 369 340.7 379 327 384C313.3 389 299.7 389 286 382C272.3 375 258.7 361 245.2 357C231.7 353 218.3 359 204.8 364C191.3 369 177.7 373 164 375C150.3 377 136.7 377 123 375C109.3 373 95.7 369 82 368C68.3 367 54.7 369 41 374C27.3 379 13.7 387 6.8 391L0 395Z" fill="#0061f1"></path><path d="M0 541L6.8 538C13.7 535 27.3 529 41 527C54.7 525 68.3 527 82 526C95.7 525 109.3 521 123 519C136.7 517 150.3 517 164 516C177.7 515 191.3 513 204.8 515C218.3 517 231.7 523 245.2 527C258.7 531 272.3 533 286 535C299.7 537 313.3 539 327 535C340.7 531 354.3 521 368 519C381.7 517 395.3 523 409 526C422.7 529 436.3 529 450 527C463.7 525 477.3 521 491 521C504.7 521 518.3 525 532 525C545.7 525 559.3 521 573 522C586.7 523 600.3 529 614 532C627.7 535 641.3 535 654.8 532C668.3 529 681.7 523 695.2 519C708.7 515 722.3 513 736 517C749.7 521 763.3 531 777 535C790.7 539 804.3 537 818 535C831.7 533 845.3 531 859 530C872.7 529 886.3 529 893.2 529L900 529L900 473L893.2 472C886.3 471 872.7 469 859 468C845.3 467 831.7 467 818 468C804.3 469 790.7 471 777 470C763.3 469 749.7 465 736 461C722.3 457 708.7 453 695.2 454C681.7 455 668.3 461 654.8 466C641.3 471 627.7 475 614 473C600.3 471 586.7 463 573 461C559.3 459 545.7 463 532 463C518.3 463 504.7 459 491 461C477.3 463 463.7 471 450 472C436.3 473 422.7 467 409 462C395.3 457 381.7 453 368 456C354.3 459 340.7 469 327 475C313.3 481 299.7 483 286 480C272.3 477 258.7 469 245.2 465C231.7 461 218.3 461 204.8 461C191.3 461 177.7 461 164 460C150.3 459 136.7 457 123 460C109.3 463 95.7 471 82 474C68.3 477 54.7 475 41 474C27.3 473 13.7 473 6.8 473L0 473Z" fill="#0056d6"></path><path d="M0 601L6.8 601C13.7 601 27.3 601 41 601C54.7 601 68.3 601 82 601C95.7 601 109.3 601 123 601C136.7 601 150.3 601 164 601C177.7 601 191.3 601 204.8 601C218.3 601 231.7 601 245.2 601C258.7 601 272.3 601 286 601C299.7 601 313.3 601 327 601C340.7 601 354.3 601 368 601C381.7 601 395.3 601 409 601C422.7 601 436.3 601 450 601C463.7 601 477.3 601 491 601C504.7 601 518.3 601 532 601C545.7 601 559.3 601 573 601C586.7 601 600.3 601 614 601C627.7 601 641.3 601 654.8 601C668.3 601 681.7 601 695.2 601C708.7 601 722.3 601 736 601C749.7 601 763.3 601 777 601C790.7 601 804.3 601 818 601C831.7 601 845.3 601 859 601C872.7 601 886.3 601 893.2 601L900 601L900 527L893.2 527C886.3 527 872.7 527 859 528C845.3 529 831.7 531 818 533C804.3 535 790.7 537 777 533C763.3 529 749.7 519 736 515C722.3 511 708.7 513 695.2 517C681.7 521 668.3 527 654.8 530C641.3 533 627.7 533 614 530C600.3 527 586.7 521 573 520C559.3 519 545.7 523 532 523C518.3 523 504.7 519 491 519C477.3 519 463.7 523 450 525C436.3 527 422.7 527 409 524C395.3 521 381.7 515 368 517C354.3 519 340.7 529 327 533C313.3 537 299.7 535 286 533C272.3 531 258.7 529 245.2 525C231.7 521 218.3 515 204.8 513C191.3 511 177.7 513 164 514C150.3 515 136.7 515 123 517C109.3 519 95.7 523 82 524C68.3 525 54.7 523 41 525C27.3 527 13.7 533 6.8 536L0 539Z" fill="#004cbb"></path></svg>