<svg id="visual" viewBox="0 0 900 600" width="900" height="600" xmlns="http://www.w3.org/2000/svg" xmlns:xlink="http://www.w3.org/1999/xlink" version="1.1"><path d="M0 79L6.8 77C13.7 75 27.3 71 41 70C54.7 69 68.3 71 82 75C95.7 79 109.3 85 123 87C136.7 89 150.3 87 164 84C177.7 81 191.3 77 204.8 74C218.3 71 231.7 69 245.2 72C258.7 75 272.3 83 286 84C299.7 85 313.3 79 327 77C340.7 75 354.3 77 368 76C381.7 75 395.3 71 409 72C422.7 73 436.3 79 450 80C463.7 81 477.3 77 491 76C504.7 75 518.3 77 532 77C545.7 77 559.3 75 573 73C586.7 71 600.3 69 614 69C627.7 69 641.3 71 654.8 72C668.3 73 681.7 73 695.2 76C708.7 79 722.3 85 736 88C749.7 91 763.3 91 777 88C790.7 85 804.3 79 818 77C831.7 75 845.3 77 859 75C872.7 73 886.3 67 893.2 64L900 61L900 0L893.2 0C886.3 0 872.7 0 859 0C845.3 0 831.7 0 818 0C804.3 0 790.7 0 777 0C763.3 0 749.7 0 736 0C722.3 0 708.7 0 695.2 0C681.7 0 668.3 0 654.8 0C641.3 0 627.7 0 614 0C600.3 0 586.7 0 573 0C559.3 0 545.7 0 532 0C518.3 0 504.7 0 491 0C477.3 0 463.7 0 450 0C436.3 0 422.7 0 409 0C395.3 0 381.7 0 368 0C354.3 0 340.7 0 327 0C313.3 0 299.7 0 286 0C272.3 0 258.7 0 245.2 0C231.7 0 218.3 0 204.8 0C191.3 0 177.7 0 164 0C150.3 0 136.7 0 123 0C109.3 0 95.7 0 82 0C68.3 0 54.7 0 41 0C27.3 0 13.7 0 6.8 0L0 0Z" fill="#6198ff"></path><path d="M0 139L6.8 139C13.7 139 27.3 139 41 139C54.7 139 68.3 139 82 141C95.7 143 109.3 147 123 150C136.7 153 150.3 155 164 151C177.7 147 191.3 137 204.8 133C218.3 129 231.7 131 245.2 137C258.7 143 272.3 153 286 155C299.7 157 313.3 151 327 148C340.7 145 354.3 145 368 144C381.7 143 395.3 141 409 139C422.7 137 436.3 135 450 134C463.7 133 477.3 133 491 135C504.7 137 518.3 141 532 141C545.7 141 559.3 137 573 136C586.7 135 600.3 137 614 139C627.7 141 641.3 143 654.8 141C668.3 139 681.7 133 695.2 135C708.7 137 722.3 147 736 150C749.7 153 763.3 149 777 145C790.7 141 804.3 137 818 135C831.7 133 845.3 133 859 131C872.7 129 886.3 125 893.2 123L900 121L900 59L893.2 62C886.3 65 872.7 71 859 73C845.3 75 831.7 73 818 75C804.3 77 790.7 83 777 86C763.3 89 749.7 89 736 86C722.3 83 708.7 77 695.2 74C681.7 71 668.3 71 654.8 70C641.3 69 627.7 67 614 67C600.3 67 586.7 69 573 71C559.3 73 545.7 75 532 75C518.3 75 504.7 73 491 74C477.3 75 463.7 79 450 78C436.3 77 422.7 71 409 70C395.3 69 381.7 73 368 74C354.3 75 340.7 73 327 75C313.3 77 299.7 83 286 82C272.3 81 258.7 73 245.2 70C231.7 67 218.3 69 204.8 72C191.3 75 177.7 79 164 82C150.3 85 136.7 87 123 85C109.3 83 95.7 77 82 73C68.3 69 54.7 67 41 68C27.3 69 13.7 73 6.8 75L0 77Z" fill="#4385ff"></path><path d="M0 217L6.8 221C13.7 225 27.3 233 41 234C54.7 235 68.3 229 82 229C95.7 229 109.3 235 123 241C136.7 247 150.3 253 164 253C177.7 253 191.3 247 204.8 242C218.3 237 231.7 233 245.2 233C258.7 233 272.3 237 286 238C299.7 239 313.3 237 327 236C340.7 235 354.3 235 368 234C381.7 233 395.3 231 409 230C422.7 229 436.3 229 450 231C463.7 233 477.3 237 491 236C504.7 235 518.3 229 532 227C545.7 225 559.3 227 573 226C586.7 225 600.3 221 614 221C627.7 221 641.3 225 654.8 230C668.3 235 681.7 241 695.2 242C708.7 243 722.3 239 736 236C749.7 233 763.3 231 777 231C790.7 231 804.3 233 818 232C831.7 231 845.3 227 859 227C872.7 227 886.3 231 893.2 233L900 235L900 119L893.2 121C886.3 123 872.7 127 859 129C845.3 131 831.7 131 818 133C804.3 135 790.7 139 777 143C763.3 147 749.7 151 736 148C722.3 145 708.7 135 695.2 133C681.7 131 668.3 137 654.8 139C641.3 141 627.7 139 614 137C600.3 135 586.7 133 573 134C559.3 135 545.7 139 532 139C518.3 139 504.7 135 491 133C477.3 131 463.7 131 450 132C436.3 133 422.7 135 409 137C395.3 139 381.7 141 368 142C354.3 143 340.7 143 327 146C313.3 149 299.7 155 286 153C272.3 151 258.7 141 245.2 135C231.7 129 218.3 127 204.8 131C191.3 135 177.7 145 164 149C150.3 153 136.7 151 123 148C109.3 145 95.7 141 82 139C68.3 137 54.7 137 41 137C27.3 137 13.7 137 6.8 137L0 137Z" fill="#2071ff"></path><path d="M0 349L6.8 360C13.7 371 27.3 393 41 399C54.7 405 68.3 395 82 393C95.7 391 109.3 397 123 403C136.7 409 150.3 415 164 410C177.7 405 191.3 389 204.8 377C218.3 365 231.7 357 245.2 362C258.7 367 272.3 385 286 393C299.7 401 313.3 399 327 391C340.7 383 354.3 369 368 364C381.7 359 395.3 363 409 365C422.7 367 436.3 367 450 373C463.7 379 477.3 391 491 396C504.7 401 518.3 399 532 396C545.7 393 559.3 389 573 384C586.7 379 600.3 373 614 368C627.7 363 641.3 359 654.8 365C668.3 371 681.7 387 695.2 391C708.7 395 722.3 387 736 382C749.7 377 763.3 375 777 376C790.7 377 804.3 381 818 384C831.7 387 845.3 389 859 387C872.7 385 886.3 379 893.2 376L900 373L900 233L893.2 231C886.3 229 872.7 225 859 225C845.3 225 831.7 229 818 230C804.3 231 790.7 229 777 229C763.3 229 749.7 231 736 234C722.3 237 708.7 241 695.2 240C681.7 239 668.3 233 654.8 228C641.3 223 627.7 219 614 219C600.3 219 586.7 223 573 224C559.3 225 545.7 223 532 225C518.3 227 504.7 233 491 234C477.3 235 463.7 231 450 229C436.3 227 422.7 227 409 228C395.3 229 381.7 231 368 232C354.3 233 340.7 233 327 234C313.3 235 299.7 237 286 236C272.3 235 258.7 231 245.2 231C231.7 231 218.3 235 204.8 240C191.3 245 177.7 251 164 251C150.3 251 136.7 245 123 239C109.3 233 95.7 227 82 227C68.3 227 54.7 233 41 232C27.3 231 13.7 223 6.8 219L0 215Z" fill="#0061f1"></path><path d="M0 397L6.8 409C13.7 421 27.3 445 41 451C54.7 457 68.3 445 82 444C95.7 443 109.3 453 123 460C136.7 467 150.3 471 164 465C177.7 459 191.3 443 204.8 433C218.3 423 231.7 419 245.2 423C258.7 427 272.3 439 286 446C299.7 453 313.3 455 327 449C340.7 443 354.3 429 368 422C381.7 415 395.3 415 409 418C422.7 421 436.3 427 450 435C463.7 443 477.3 453 491 455C504.7 457 518.3 451 532 449C545.7 447 559.3 449 573 446C586.7 443 600.3 435 614 427C627.7 419 641.3 411 654.8 416C668.3 421 681.7 439 695.2 443C708.7 447 722.3 437 736 432C749.7 427 763.3 427 777 431C790.7 435 804.3 443 818 447C831.7 451 845.3 451 859 449C872.7 447 886.3 443 893.2 441L900 439L900 371L893.2 374C886.3 377 872.7 383 859 385C845.3 387 831.7 385 818 382C804.3 379 790.7 375 777 374C763.3 373 749.7 375 736 380C722.3 385 708.7 393 695.2 389C681.7 385 668.3 369 654.8 363C641.3 357 627.7 361 614 366C600.3 371 586.7 377 573 382C559.3 387 545.7 391 532 394C518.3 397 504.7 399 491 394C477.3 389 463.7 377 450 371C436.3 365 422.7 365 409 363C395.3 361 381.7 357 368 362C354.3 367 340.7 381 327 389C313.3 397 299.7 399 286 391C272.3 383 258.7 365 245.2 360C231.7 355 218.3 363 204.8 375C191.3 387 177.7 403 164 408C150.3 413 136.7 407 123 401C109.3 395 95.7 389 82 391C68.3 393 54.7 403 41 397C27.3 391 13.7 369 6.8 358L0 347Z" fill="#0056d6"></path><path d="M0 601L6.8 601C13.7 601 27.3 601 41 601C54.7 601 68.3 601 82 601C95.7 601 109.3 601 123 601C136.7 601 150.3 601 164 601C177.7 601 191.3 601 204.8 601C218.3 601 231.7 601 245.2 601C258.7 601 272.3 601 286 601C299.7 601 313.3 601 327 601C340.7 601 354.3 601 368 601C381.7 601 395.3 601 409 601C422.7 601 436.3 601 450 601C463.7 601 477.3 601 491 601C504.7 601 518.3 601 532 601C545.7 601 559.3 601 573 601C586.7 601 600.3 601 614 601C627.7 601 641.3 601 654.8 601C668.3 601 681.7 601 695.2 601C708.7 601 722.3 601 736 601C749.7 601 763.3 601 777 601C790.7 601 804.3 601 818 601C831.7 601 845.3 601 859 601C872.7 601 886.3 601 893.2 601L900 601L900 437L893.2 439C886.3 441 872.7 445 859 447C845.3 449 831.7 449 818 445C804.3 441 790.7 433 777 429C763.3 425 749.7 425 736 430C722.3 435 708.7 445 695.2 441C681.7 437 668.3 419 654.8 414C641.3 409 627.7 417 614 425C600.3 433 586.7 441 573 444C559.3 447 545.7 445 532 447C518.3 449 504.7 455 491 453C477.3 451 463.7 441 450 433C436.3 425 422.7 419 409 416C395.3 413 381.7 413 368 420C354.3 427 340.7 441 327 447C313.3 453 299.7 451 286 444C272.3 437 258.7 425 245.2 421C231.7 417 218.3 421 204.8 431C191.3 441 177.7 457 164 463C150.3 469 136.7 465 123 458C109.3 451 95.7 441 82 442C68.3 443 54.7 455 41 449C27.3 443 13.7 419 6.8 407L0 395Z" fill="#004cbb"></path></svg>